<svg xmlns="http://www.w3.org/2000/svg" width="80" height="60" viewBox="0 0 80 60">
    <path fill="#66B5D0" fill-rule="evenodd" d="M32.168 5.526c4.33-6.835 10.684-6.064 14.438-4.332 3.754 1.733 8.277 8.471 4.429 12.322-3.155 3.154-6.757 3.794-7.957 7.521a9.22 9.22 0 0 0-7.52.492 6.799 6.799 0 0 0-1.008-.805c-3.827-2.519-5.267-10.646-2.382-15.198zM15.526 37.225c-6.835-4.333-6.064-10.686-4.333-14.44 1.734-3.753 8.472-8.278 12.324-4.427 3.154 3.155 3.793 6.757 7.52 7.959a9.231 9.231 0 0 0-.578 3.198c0 1.559.39 3.027 1.07 4.319-.263.27-.534.597-.806 1.008-2.517 3.825-10.645 5.267-15.197 2.383zm31.7 17.249c-4.333 6.835-10.686 6.064-14.44 4.332-3.753-1.734-8.279-8.47-4.429-12.321 3.156-3.155 6.758-3.795 7.959-7.521a9.228 9.228 0 0 0 7.517-.492c.271.264.6.535 1.01.805 3.826 2.52 5.266 10.646 2.382 15.197zm16.311-32.306c6.835 4.332 6.066 10.684 4.332 14.44-1.733 3.752-8.47 8.276-12.323 4.428-3.154-3.157-3.792-6.758-7.519-7.958a9.24 9.24 0 0 0 .578-3.2c0-1.56-.39-3.026-1.071-4.32.264-.27.534-.597.805-1.008 2.518-3.826 10.648-5.267 15.198-2.382zM46.525 29.99a6.533 6.533 0 1 1-13.066 0 6.532 6.532 0 0 1 6.531-6.531 6.531 6.531 0 0 1 6.535 6.531z"/>
</svg>
