<svg xmlns="http://www.w3.org/2000/svg" width="80" height="60" viewBox="0 0 80 60">
    <path fill="#66B5D0" fill-rule="nonzero" d="M57.482 7.738h10.471a1.601 1.601 0 0 1 0 3.202H57.482a1.601 1.601 0 0 1 0-3.202zM52.967 9.34a6.894 6.894 0 0 0-13.601-1.588 1.558 1.558 0 0 0-.187-.012H11.774a1.601 1.601 0 0 0 0 3.202H39.18c.063 0 .125-.005.186-.012a6.896 6.896 0 0 0 6.708 5.305 6.896 6.896 0 0 0 6.894-6.895zm-11.28 20.726c0 .884.716 1.601 1.6 1.601h24.666a1.601 1.601 0 0 0 0-3.201H43.287c-.884 0-1.6.716-1.6 1.6zm-2.915 0a6.894 6.894 0 0 0-13.605-1.573 1.565 1.565 0 0 0-.287-.027H11.155a1.601 1.601 0 0 0 0 3.201H24.88c.098 0 .194-.01.287-.027a6.894 6.894 0 0 0 13.605-1.574zm17.11 20.595c0 .884.717 1.6 1.6 1.6h10.471a1.601 1.601 0 0 0 0-3.2H57.482c-.884 0-1.6.716-1.6 1.6zm-9.81 6.894a6.894 6.894 0 1 0-6.707-8.482 1.558 1.558 0 0 0-.186-.011H11.773a1.601 1.601 0 0 0 0 3.202H39.18c.063 0 .125-.005.186-.012a6.896 6.896 0 0 0 6.708 5.303z"/>
</svg>
