<svg xmlns="http://www.w3.org/2000/svg" xmlns:xlink="http://www.w3.org/1999/xlink" width="174" height="70" viewBox="0 0 174 70">
    <defs>
        <path id="b" d="M.243 1.133C-1.756-2.807.197-6 4.629-6h164.859c4.42 0 6.195 3.097 3.965 6.912l-36.339 62.176C134.883 66.905 129.49 70 125.084 70H43.17c-4.413 0-9.61-3.193-11.609-7.133L.243 1.133z"/>
        <filter id="a" width="111.4%" height="126.3%" x="-5.7%" y="-10.5%" filterUnits="objectBoundingBox">
            <feOffset dy="2" in="SourceAlpha" result="shadowOffsetOuter1"/>
            <feGaussianBlur in="shadowOffsetOuter1" result="shadowBlurOuter1" stdDeviation="3"/>
            <feColorMatrix in="shadowBlurOuter1" values="0 0 0 0 0.0823529412 0 0 0 0 0.0784313725 0 0 0 0 0.294117647 0 0 0 0.3 0"/>
        </filter>
    </defs>
    <g fill="none" fill-rule="evenodd">
        <use fill="#000" filter="url(#a)" xlink:href="#b"/>
        <use fill="#FFF" xlink:href="#b"/>
        <g>
            <path fill="#006FAF" d="M57.158 38.053V37v14.21H44V17h13.158v1.052V17h6.316C69.287 17 74 21.713 74 27.526c0 5.814-4.713 10.527-10.526 10.527h-6.316zm3.42-2.632a7.632 7.632 0 1 0 0-15.263 7.632 7.632 0 0 0 0 15.263z"/>
            <path fill="#006FAF" d="M63.737 32.263V27.79h-6.58v2.106h4.475v4.474h6.579v-2.106h-4.474zm-4.474-9.737v-2.631h-2.105v4.737h6.579v-2.106h-4.474z"/>
            <path fill="#6FB8D0" d="M63.737 25.421v1.58h-6.58v-1.58z"/>
            <path fill="#006FAF" d="M86.57 34.28c.82.76 1.23 1.733 1.23 2.92 0 1.187-.397 2.163-1.19 2.93-.793.767-1.997 1.15-3.61 1.15h-2.68V47H78.5V33.14H83c1.56 0 2.75.38 3.57 1.14zm-6.25 5.56H83c1 0 1.743-.23 2.23-.69.487-.46.73-1.103.73-1.93 0-1.747-.987-2.62-2.96-2.62h-2.68v5.24zm11.56-3.82v1.86c.653-1.36 1.767-2.04 3.34-2.04v1.9h-.48c-.933 0-1.643.243-2.13.73-.487.487-.73 1.33-.73 2.53v6h-1.82V36.02h1.82zm12.89 8.55c.753-.74 1.13-1.763 1.13-3.07s-.36-2.327-1.08-3.06c-.72-.733-1.597-1.1-2.63-1.1s-1.897.367-2.59 1.1c-.693.733-1.04 1.757-1.04 3.07s.333 2.337 1 3.07c.667.733 1.513 1.1 2.54 1.1 1.027 0 1.917-.37 2.67-1.11zm-8.07-3.05c0-1.693.527-3.063 1.58-4.11 1.053-1.047 2.373-1.57 3.96-1.57 1.587 0 2.907.523 3.96 1.57 1.053 1.047 1.58 2.413 1.58 4.1 0 1.687-.55 3.053-1.65 4.1-1.1 1.047-2.443 1.57-4.03 1.57-1.587 0-2.883-.52-3.89-1.56-1.007-1.04-1.51-2.407-1.51-4.1zm21.92 0c0-1.24-.363-2.233-1.09-2.98-.727-.747-1.6-1.12-2.62-1.12s-1.893.36-2.62 1.08c-.727.72-1.09 1.7-1.09 2.94s.367 2.247 1.1 3.02c.733.773 1.607 1.16 2.62 1.16 1.013 0 1.883-.373 2.61-1.12.727-.747 1.09-1.74 1.09-2.98zm-7.78 4.05c-1-1.073-1.5-2.447-1.5-4.12s.497-3.027 1.49-4.06c.993-1.033 2.243-1.55 3.75-1.55.933 0 1.75.22 2.45.66.7.44 1.23 1.013 1.59 1.72v-2.2h1.84V47h-1.84v-2.24a4.36 4.36 0 0 1-1.59 1.75c-.7.447-1.517.67-2.45.67-1.493 0-2.74-.537-3.74-1.61zm13.54-11.31c-.347 0-.637-.12-.87-.36a1.215 1.215 0 0 1-.35-.88c0-.347.12-.64.36-.88s.53-.36.87-.36c.34 0 .63.12.87.36s.36.533.36.88-.12.64-.36.88-.533.36-.88.36zM123.46 47V36.02h1.82V47h-1.82zm6.64-10.98v1.86c.653-1.36 1.767-2.04 3.34-2.04v1.9h-.48c-.933 0-1.643.243-2.13.73-.487.487-.73 1.33-.73 2.53v6h-1.82V36.02h1.82z"/>
        </g>
    </g>
</svg>
