<svg xmlns="http://www.w3.org/2000/svg" width="80" height="60" viewBox="0 0 80 60">
    <path fill="#66B5D0" fill-rule="nonzero" d="M40.484 59.727c-32.496-4.733-24.32-48.524-9.4-55.401-5.423 5.706-7.323 13.928-3.372 18.11C31.51 13.087 36.902 6.361 44.267 0c-3.004 7.893.935 19.952 9.415 21.863 2.24.023 4.324-3.318 2.755-8.452 4.85 6.664 6.512 16.586 5.718 20.722C59.774 46.534 48.488 43.593 44.043 60c-1.46-11.751 4.744-17.181 7.054-20.181 5.672-7.364-14.412-13.217-11.343-29.434-7.241 9.603-4.62 27.038-.418 31.64-5.788-3.086-8.771-7.249-7.845-15.304-9.948 17.378-.85 29.282 8.993 33.006z"/>
</svg>
