<svg xmlns="http://www.w3.org/2000/svg" width="80" height="60" viewBox="0 0 80 60">
    <path fill="#66B5D0" fill-rule="nonzero" d="M40.384 0a2.552 2.552 0 0 0-2.555 2.554v4.77l-4.468-4.877a2.555 2.555 0 0 0-3.768 3.451l8.236 8.99v10.688l-9.255-5.342-3.668-11.633a2.564 2.564 0 0 0-3.208-1.668 2.56 2.56 0 0 0-1.666 3.206l1.991 6.314-4.137-2.388A2.55 2.55 0 0 0 14.4 15a2.548 2.548 0 0 0 .933 3.49l4.138 2.388-6.463 1.43a2.553 2.553 0 1 0 1.101 4.99l11.914-2.638L35.274 30l-9.257 5.343-11.909-2.64a2.55 2.55 0 0 0-3.047 1.941 2.558 2.558 0 0 0 1.941 3.048l6.464 1.433-4.134 2.386a2.556 2.556 0 1 0 2.554 4.424l4.138-2.388-1.992 6.317a2.56 2.56 0 0 0 1.666 3.206 2.556 2.556 0 0 0 3.208-1.668l3.67-11.637 9.253-5.34v10.68l-8.24 8.997a2.558 2.558 0 0 0 .155 3.61c.496.449 1.114.671 1.727.671.695 0 1.382-.278 1.885-.83l4.473-4.883v4.776a2.554 2.554 0 1 0 5.109 0v-4.777l4.476 4.886a2.556 2.556 0 1 0 3.768-3.451l-8.244-9V34.427l9.253 5.342 3.663 11.634a2.555 2.555 0 0 0 4.874-1.538l-1.989-6.316 4.135 2.387A2.55 2.55 0 0 0 66.36 45a2.548 2.548 0 0 0-.933-3.49l-4.134-2.386 6.464-1.432a2.557 2.557 0 0 0 1.941-3.048 2.55 2.55 0 0 0-3.047-1.941l-11.91 2.639L45.492 30l9.25-5.341 11.91 2.637c.184.034.37.06.554.06a2.555 2.555 0 0 0 .546-5.048l-6.458-1.431 4.137-2.388a2.552 2.552 0 0 0 .932-3.49 2.551 2.551 0 0 0-3.487-.935l-4.134 2.387 1.988-6.313a2.557 2.557 0 0 0-1.67-3.206 2.56 2.56 0 0 0-3.204 1.668l-3.663 11.631-9.255 5.344V14.89l8.241-8.994a2.554 2.554 0 0 0-3.768-3.451l-4.473 4.882V2.554A2.552 2.552 0 0 0 40.384 0z"/>
</svg>
