<svg xmlns="http://www.w3.org/2000/svg" width="40" height="40" viewBox="0 0 40 40">
    <path fill="#FFF" fill-rule="nonzero" d="M35.108 19.772a.646.646 0 0 0-.01-.118c-.004-.014-.004-.03-.008-.048a1.358 1.358 0 0 0-.034-.11c-.007-.015-.01-.028-.017-.042-.014-.038-.035-.07-.056-.104-.007-.014-.014-.024-.02-.038a1.91 1.91 0 0 0-.073-.086c-.014-.014-.024-.028-.035-.038-.01-.01-.017-.021-.027-.028l-3.388-2.98V7.21a.865.865 0 0 0-.864-.864h-5.057a.865.865 0 0 0-.865.864v2.997l-4.545-4a.072.072 0 0 0-.021-.013l-.007-.007a.306.306 0 0 0-.059-.042c-.003-.003-.003-.003-.007-.003a.854.854 0 0 0-.28-.121c-.007-.004-.017-.004-.027-.007l-.08-.01c-.014 0-.028 0-.041-.004h-.045c-.024.003-.052.003-.076.007-.01 0-.025 0-.038.003a.1.1 0 0 0-.031.007l-.087.021-.031.01a.174.174 0 0 0-.045.018l-.07.03c-.01.008-.02.011-.03.018-.01.007-.02.017-.031.024-.028.018-.052.031-.076.052-.007.007-.018.01-.025.017L6.565 17.152 4.283 19.16c-.01.007-.017.017-.024.028-.014.013-.027.03-.041.041-.024.028-.049.052-.062.083-.014.014-.021.028-.032.045a.63.63 0 0 0-.051.093c-.01.018-.014.038-.021.056a.79.79 0 0 0-.028.096c-.007.021-.007.042-.01.063a.52.52 0 0 0-.01.1c0 .007-.004.017-.004.024 0 .017.003.031.003.045l.01.093c.004.025.011.052.018.076.007.028.017.052.024.077.01.03.021.058.035.079.014.024.024.045.038.066a.692.692 0 0 0 .055.083c.01.01.014.024.024.034a.06.06 0 0 1 .018.014c.027.028.058.059.093.086.014.01.024.021.035.025.041.03.09.058.134.083.004 0 .007.003.01.003a.85.85 0 0 0 .34.073H6.28v12.537c0 .464.374.837.837.837h7.937a.467.467 0 0 0 .466-.467v-7.542c0-.398.322-.723.723-.723h6.623c.401 0 .723.325.723.723v7.542c0 .26.21.467.466.467h7.937a.835.835 0 0 0 .837-.837V20.626h1.445a.85.85 0 0 0 .338-.073c.007-.003.01-.007.021-.01a1.16 1.16 0 0 0 .125-.073c.013-.01.027-.024.041-.034.031-.025.059-.052.086-.08l.018-.017c.01-.01.017-.024.027-.038.018-.024.038-.045.052-.073l.042-.072.03-.07c.011-.03.018-.058.028-.09l.014-.062a.599.599 0 0 0 .01-.11c0-.01.004-.021.004-.035 0-.007 0-.01-.003-.017z"/>
</svg>
