<svg xmlns="http://www.w3.org/2000/svg" width="30" height="35" viewBox="0 0 30 35">
    <g fill="none" fill-rule="evenodd">
        <path fill="#006FAF" d="M13.158 21.053V20v14.21H0V0h13.158v1.052V0h6.316C25.287 0 30 4.713 30 10.526c0 5.814-4.713 10.527-10.526 10.527h-6.316zm3.42-2.632a7.632 7.632 0 1 0 0-15.263 7.632 7.632 0 0 0 0 15.263z"/>
        <path fill="#006FAF" d="M19.737 15.263V10.79h-6.58v2.106h4.475v4.474h6.579v-2.106h-4.474zm-4.474-9.737V2.895h-2.105v4.737h6.579V5.526h-4.474z"/>
        <path fill="#6FB8D0" d="M19.737 8.421v1.58h-6.58V8.42z"/>
    </g>
</svg>
