<svg xmlns="http://www.w3.org/2000/svg" width="40" height="40" viewBox="0 0 40 40">
    <g fill="#FFF" fill-rule="evenodd">
        <path d="M19.077 17.798L6 24.333l4.002 13.996.971-.583a2.308 2.308 0 0 1 2.37 0l2.66 1.593 2.656-1.593c.133-.078.273-.144.418-.195V17.798zm1.538 0V37.55c.146.051.286.117.418.195l2.656 1.593 2.66-1.593a2.308 2.308 0 0 1 2.37 0l.97.583 4.003-13.996-13.077-6.535z"/>
        <path d="M19.846 9.72l-9.23 4.613v5.974l8.542-4.27a1.54 1.54 0 0 1 1.376 0l8.543 4.27v-5.974l-9.23-4.612zM19.077 0v5.105h-2.308v4.432l3.077-1.535 3.074 1.535.003-4.432h-2.308V0h-1.538z"/>
    </g>
</svg>
