<svg xmlns="http://www.w3.org/2000/svg" width="40" height="40" viewBox="0 0 40 40">
    <path fill="#FFF" fill-rule="nonzero" d="M5.368 9.804a5.524 5.524 0 0 1-.055-.764c0-.26.019-.516.055-.765C5.718 5.855 7.704 4 10.101 4s4.383 1.854 4.733 4.275a5.346 5.346 0 0 1 0 1.53l-.01.134c-.303 3.417-2.302 6.056-4.723 6.056-2.42 0-4.42-2.64-4.721-6.056-.004-.044-.009-.089-.012-.135zm25.95 14.91a8.045 8.045 0 0 1 7.304 8.01c0 4.421-3.566 4.432-7.977 4.432h-8.419c-4.412 0-7.978-.011-7.978-4.432a8.046 8.046 0 0 1 7.305-8.01c.031 1.467 2.205 2.65 4.883 2.65 2.676 0 4.85-1.183 4.882-2.65zm-10.968-7.27a6.67 6.67 0 0 1-.07-.984c0-.335.024-.662.07-.983.45-3.112 3.005-5.497 6.086-5.497 3.082 0 5.635 2.385 6.085 5.497a6.955 6.955 0 0 1 0 1.966l-.014.173c-.18 2.036-.83 3.856-1.783 5.224-.362.518-.767.97-1.206 1.345-.906.772-1.958 1.217-3.082 1.217-1.125 0-2.177-.445-3.083-1.217a7.082 7.082 0 0 1-1.205-1.345c-.954-1.368-1.603-3.188-1.783-5.224l-.015-.173zm-6.044-2.072A6.271 6.271 0 0 1 20 21.615c0 3.447-2.78 3.456-6.218 3.456H7.219C3.779 25.07 1 25.06 1 21.615a6.272 6.272 0 0 1 5.694-6.243c.025 1.143 1.72 2.066 3.806 2.066 2.087 0 3.782-.923 3.806-2.066z"/>
</svg>
